<mxfile host="app.diagrams.net" modified="2021-10-17T09:23:37.026Z" agent="5.0 (Macintosh; Intel Mac OS X 10_15_7) AppleWebKit/605.1.15 (KHTML, like Gecko) Version/15.0 Safari/605.1.15" etag="yNgg6wwB59ASD7kNVydZ" version="15.5.4" type="github" pages="4">
  <diagram id="C5RBs43oDa-KdzZeNtuy" name="TSI mit Interface">
    <mxGraphModel dx="946" dy="612" grid="0" gridSize="10" guides="1" tooltips="1" connect="1" arrows="1" fold="1" page="1" pageScale="1" pageWidth="827" pageHeight="1169" math="0" shadow="0">
      <root>
        <mxCell id="WIyWlLk6GJQsqaUBKTNV-0" />
        <mxCell id="WIyWlLk6GJQsqaUBKTNV-1" parent="WIyWlLk6GJQsqaUBKTNV-0" />
        <mxCell id="zkfFHV4jXpPFQw0GAbJ--0" value="Liste" style="swimlane;fontStyle=0;align=center;verticalAlign=top;childLayout=stackLayout;horizontal=1;startSize=26;horizontalStack=0;resizeParent=1;resizeLast=0;collapsible=1;marginBottom=0;rounded=0;shadow=0;strokeWidth=1;" parent="WIyWlLk6GJQsqaUBKTNV-1" vertex="1">
          <mxGeometry x="100" y="110" width="280" height="220" as="geometry">
            <mxRectangle x="130" y="120" width="160" height="26" as="alternateBounds" />
          </mxGeometry>
        </mxCell>
        <mxCell id="zkfFHV4jXpPFQw0GAbJ--1" value="- erster: Knoten" style="text;align=left;verticalAlign=top;spacingLeft=4;spacingRight=4;overflow=hidden;rotatable=0;points=[[0,0.5],[1,0.5]];portConstraint=eastwest;" parent="zkfFHV4jXpPFQw0GAbJ--0" vertex="1">
          <mxGeometry y="26" width="280" height="26" as="geometry" />
        </mxCell>
        <mxCell id="zkfFHV4jXpPFQw0GAbJ--4" value="" style="line;html=1;strokeWidth=1;align=left;verticalAlign=middle;spacingTop=-1;spacingLeft=3;spacingRight=3;rotatable=0;labelPosition=right;points=[];portConstraint=eastwest;" parent="zkfFHV4jXpPFQw0GAbJ--0" vertex="1">
          <mxGeometry y="52" width="280" height="8" as="geometry" />
        </mxCell>
        <mxCell id="RZcI_MiX01HpQjXzCx-L-5" value="+ vorneEinfuegen(daten: Datenelement): void" style="text;align=left;verticalAlign=top;spacingLeft=4;spacingRight=4;overflow=hidden;rotatable=0;points=[[0,0.5],[1,0.5]];portConstraint=eastwest;" parent="zkfFHV4jXpPFQw0GAbJ--0" vertex="1">
          <mxGeometry y="60" width="280" height="26" as="geometry" />
        </mxCell>
        <mxCell id="zkfFHV4jXpPFQw0GAbJ--5" value="+ hintenEinfuegen(daten: Datenelement): void" style="text;align=left;verticalAlign=top;spacingLeft=4;spacingRight=4;overflow=hidden;rotatable=0;points=[[0,0.5],[1,0.5]];portConstraint=eastwest;" parent="zkfFHV4jXpPFQw0GAbJ--0" vertex="1">
          <mxGeometry y="86" width="280" height="26" as="geometry" />
        </mxCell>
        <mxCell id="RZcI_MiX01HpQjXzCx-L-6" value="+ vorneEntfernen(): void" style="text;align=left;verticalAlign=top;spacingLeft=4;spacingRight=4;overflow=hidden;rotatable=0;points=[[0,0.5],[1,0.5]];portConstraint=eastwest;" parent="zkfFHV4jXpPFQw0GAbJ--0" vertex="1">
          <mxGeometry y="112" width="280" height="26" as="geometry" />
        </mxCell>
        <mxCell id="RZcI_MiX01HpQjXzCx-L-7" value="+ hintenEntfernen(): void" style="text;align=left;verticalAlign=top;spacingLeft=4;spacingRight=4;overflow=hidden;rotatable=0;points=[[0,0.5],[1,0.5]];portConstraint=eastwest;" parent="zkfFHV4jXpPFQw0GAbJ--0" vertex="1">
          <mxGeometry y="138" width="280" height="26" as="geometry" />
        </mxCell>
        <mxCell id="RZcI_MiX01HpQjXzCx-L-8" value="+ anzahlGeben(): int" style="text;align=left;verticalAlign=top;spacingLeft=4;spacingRight=4;overflow=hidden;rotatable=0;points=[[0,0.5],[1,0.5]];portConstraint=eastwest;" parent="zkfFHV4jXpPFQw0GAbJ--0" vertex="1">
          <mxGeometry y="164" width="280" height="26" as="geometry" />
        </mxCell>
        <mxCell id="RZcI_MiX01HpQjXzCx-L-9" value="+ listeDrucken(): void" style="text;align=left;verticalAlign=top;spacingLeft=4;spacingRight=4;overflow=hidden;rotatable=0;points=[[0,0.5],[1,0.5]];portConstraint=eastwest;" parent="zkfFHV4jXpPFQw0GAbJ--0" vertex="1">
          <mxGeometry y="190" width="280" height="26" as="geometry" />
        </mxCell>
        <mxCell id="RZcI_MiX01HpQjXzCx-L-27" style="edgeStyle=orthogonalEdgeStyle;rounded=0;orthogonalLoop=1;jettySize=auto;html=1;exitX=0.5;exitY=0;exitDx=0;exitDy=0;entryX=0.5;entryY=1;entryDx=0;entryDy=0;endArrow=block;endFill=0;dashed=1;" parent="WIyWlLk6GJQsqaUBKTNV-1" source="zkfFHV4jXpPFQw0GAbJ--6" target="RZcI_MiX01HpQjXzCx-L-21" edge="1">
          <mxGeometry relative="1" as="geometry" />
        </mxCell>
        <mxCell id="zkfFHV4jXpPFQw0GAbJ--6" value="Patient" style="swimlane;fontStyle=0;align=center;verticalAlign=top;childLayout=stackLayout;horizontal=1;startSize=26;horizontalStack=0;resizeParent=1;resizeLast=0;collapsible=1;marginBottom=0;rounded=0;shadow=0;strokeWidth=1;" parent="WIyWlLk6GJQsqaUBKTNV-1" vertex="1">
          <mxGeometry x="515" y="541" width="232" height="202" as="geometry">
            <mxRectangle x="130" y="380" width="160" height="26" as="alternateBounds" />
          </mxGeometry>
        </mxCell>
        <mxCell id="zkfFHV4jXpPFQw0GAbJ--7" value="- name: String" style="text;align=left;verticalAlign=top;spacingLeft=4;spacingRight=4;overflow=hidden;rotatable=0;points=[[0,0.5],[1,0.5]];portConstraint=eastwest;" parent="zkfFHV4jXpPFQw0GAbJ--6" vertex="1">
          <mxGeometry y="26" width="232" height="26" as="geometry" />
        </mxCell>
        <mxCell id="zkfFHV4jXpPFQw0GAbJ--8" value="- pnummer: int" style="text;align=left;verticalAlign=top;spacingLeft=4;spacingRight=4;overflow=hidden;rotatable=0;points=[[0,0.5],[1,0.5]];portConstraint=eastwest;rounded=0;shadow=0;html=0;" parent="zkfFHV4jXpPFQw0GAbJ--6" vertex="1">
          <mxGeometry y="52" width="232" height="26" as="geometry" />
        </mxCell>
        <mxCell id="zkfFHV4jXpPFQw0GAbJ--10" value="- geburtsjahr: int" style="text;align=left;verticalAlign=top;spacingLeft=4;spacingRight=4;overflow=hidden;rotatable=0;points=[[0,0.5],[1,0.5]];portConstraint=eastwest;fontStyle=0" parent="zkfFHV4jXpPFQw0GAbJ--6" vertex="1">
          <mxGeometry y="78" width="232" height="26" as="geometry" />
        </mxCell>
        <mxCell id="zkfFHV4jXpPFQw0GAbJ--9" value="" style="line;html=1;strokeWidth=1;align=left;verticalAlign=middle;spacingTop=-1;spacingLeft=3;spacingRight=3;rotatable=0;labelPosition=right;points=[];portConstraint=eastwest;" parent="zkfFHV4jXpPFQw0GAbJ--6" vertex="1">
          <mxGeometry y="104" width="232" height="8" as="geometry" />
        </mxCell>
        <mxCell id="zkfFHV4jXpPFQw0GAbJ--11" value="+ schluesselGeben(): String" style="text;align=left;verticalAlign=top;spacingLeft=4;spacingRight=4;overflow=hidden;rotatable=0;points=[[0,0.5],[1,0.5]];portConstraint=eastwest;" parent="zkfFHV4jXpPFQw0GAbJ--6" vertex="1">
          <mxGeometry y="112" width="232" height="26" as="geometry" />
        </mxCell>
        <mxCell id="RZcI_MiX01HpQjXzCx-L-25" value="+ infoGeben(): String" style="text;align=left;verticalAlign=top;spacingLeft=4;spacingRight=4;overflow=hidden;rotatable=0;points=[[0,0.5],[1,0.5]];portConstraint=eastwest;" parent="zkfFHV4jXpPFQw0GAbJ--6" vertex="1">
          <mxGeometry y="138" width="232" height="26" as="geometry" />
        </mxCell>
        <mxCell id="RZcI_MiX01HpQjXzCx-L-26" value="+ vergleiche(daten: Datenelement): int" style="text;align=left;verticalAlign=top;spacingLeft=4;spacingRight=4;overflow=hidden;rotatable=0;points=[[0,0.5],[1,0.5]];portConstraint=eastwest;" parent="zkfFHV4jXpPFQw0GAbJ--6" vertex="1">
          <mxGeometry y="164" width="232" height="26" as="geometry" />
        </mxCell>
        <mxCell id="RZcI_MiX01HpQjXzCx-L-22" style="edgeStyle=orthogonalEdgeStyle;rounded=0;orthogonalLoop=1;jettySize=auto;html=1;exitX=0.5;exitY=1;exitDx=0;exitDy=0;entryX=0.5;entryY=0;entryDx=0;entryDy=0;endArrow=none;endFill=0;" parent="WIyWlLk6GJQsqaUBKTNV-1" source="zkfFHV4jXpPFQw0GAbJ--17" target="RZcI_MiX01HpQjXzCx-L-21" edge="1">
          <mxGeometry relative="1" as="geometry" />
        </mxCell>
        <mxCell id="RZcI_MiX01HpQjXzCx-L-23" value="hat als Inhalt &amp;gt;" style="edgeLabel;html=1;align=center;verticalAlign=middle;resizable=0;points=[];rotation=90;" parent="RZcI_MiX01HpQjXzCx-L-22" vertex="1" connectable="0">
          <mxGeometry x="-0.0685" y="2" relative="1" as="geometry">
            <mxPoint x="12" y="2" as="offset" />
          </mxGeometry>
        </mxCell>
        <mxCell id="zkfFHV4jXpPFQw0GAbJ--17" value="Knoten" style="swimlane;fontStyle=0;align=center;verticalAlign=top;childLayout=stackLayout;horizontal=1;startSize=26;horizontalStack=0;resizeParent=1;resizeLast=0;collapsible=1;marginBottom=0;rounded=0;shadow=0;strokeWidth=1;" parent="WIyWlLk6GJQsqaUBKTNV-1" vertex="1">
          <mxGeometry x="501" y="110" width="262" height="222" as="geometry">
            <mxRectangle x="550" y="140" width="160" height="26" as="alternateBounds" />
          </mxGeometry>
        </mxCell>
        <mxCell id="zkfFHV4jXpPFQw0GAbJ--18" value="- naechster: Knoten" style="text;align=left;verticalAlign=top;spacingLeft=4;spacingRight=4;overflow=hidden;rotatable=0;points=[[0,0.5],[1,0.5]];portConstraint=eastwest;" parent="zkfFHV4jXpPFQw0GAbJ--17" vertex="1">
          <mxGeometry y="26" width="262" height="26" as="geometry" />
        </mxCell>
        <mxCell id="zkfFHV4jXpPFQw0GAbJ--19" value="- daten: Datenelement" style="text;align=left;verticalAlign=top;spacingLeft=4;spacingRight=4;overflow=hidden;rotatable=0;points=[[0,0.5],[1,0.5]];portConstraint=eastwest;rounded=0;shadow=0;html=0;" parent="zkfFHV4jXpPFQw0GAbJ--17" vertex="1">
          <mxGeometry y="52" width="262" height="26" as="geometry" />
        </mxCell>
        <mxCell id="zkfFHV4jXpPFQw0GAbJ--23" value="" style="line;html=1;strokeWidth=1;align=left;verticalAlign=middle;spacingTop=-1;spacingLeft=3;spacingRight=3;rotatable=0;labelPosition=right;points=[];portConstraint=eastwest;" parent="zkfFHV4jXpPFQw0GAbJ--17" vertex="1">
          <mxGeometry y="78" width="262" height="8" as="geometry" />
        </mxCell>
        <mxCell id="zkfFHV4jXpPFQw0GAbJ--24" value="+ hintenEinfuegen(daten: Datenelement): void" style="text;align=left;verticalAlign=top;spacingLeft=4;spacingRight=4;overflow=hidden;rotatable=0;points=[[0,0.5],[1,0.5]];portConstraint=eastwest;" parent="zkfFHV4jXpPFQw0GAbJ--17" vertex="1">
          <mxGeometry y="86" width="262" height="26" as="geometry" />
        </mxCell>
        <mxCell id="zkfFHV4jXpPFQw0GAbJ--25" value="+ hintenEntfernen(): Knoten" style="text;align=left;verticalAlign=top;spacingLeft=4;spacingRight=4;overflow=hidden;rotatable=0;points=[[0,0.5],[1,0.5]];portConstraint=eastwest;" parent="zkfFHV4jXpPFQw0GAbJ--17" vertex="1">
          <mxGeometry y="112" width="262" height="26" as="geometry" />
        </mxCell>
        <mxCell id="RZcI_MiX01HpQjXzCx-L-11" value="+ listeDrucken(): void" style="text;align=left;verticalAlign=top;spacingLeft=4;spacingRight=4;overflow=hidden;rotatable=0;points=[[0,0.5],[1,0.5]];portConstraint=eastwest;" parent="zkfFHV4jXpPFQw0GAbJ--17" vertex="1">
          <mxGeometry y="138" width="262" height="26" as="geometry" />
        </mxCell>
        <mxCell id="RZcI_MiX01HpQjXzCx-L-10" value="+ anzahlGeben(): int" style="text;align=left;verticalAlign=top;spacingLeft=4;spacingRight=4;overflow=hidden;rotatable=0;points=[[0,0.5],[1,0.5]];portConstraint=eastwest;" parent="zkfFHV4jXpPFQw0GAbJ--17" vertex="1">
          <mxGeometry y="164" width="262" height="20" as="geometry" />
        </mxCell>
        <mxCell id="RZcI_MiX01HpQjXzCx-L-17" style="edgeStyle=orthogonalEdgeStyle;rounded=0;orthogonalLoop=1;jettySize=auto;html=1;exitX=1;exitY=0.5;exitDx=0;exitDy=0;endArrow=none;endFill=0;entryX=0.5;entryY=0;entryDx=0;entryDy=0;" parent="zkfFHV4jXpPFQw0GAbJ--17" source="zkfFHV4jXpPFQw0GAbJ--24" target="zkfFHV4jXpPFQw0GAbJ--17" edge="1">
          <mxGeometry relative="1" as="geometry">
            <mxPoint x="197" y="-101" as="targetPoint" />
            <Array as="points">
              <mxPoint x="281" y="99" />
              <mxPoint x="281" y="-61" />
              <mxPoint x="125" y="-61" />
            </Array>
          </mxGeometry>
        </mxCell>
        <mxCell id="RZcI_MiX01HpQjXzCx-L-18" value="&amp;lt; hat als Nachfolger" style="edgeLabel;html=1;align=center;verticalAlign=middle;resizable=0;points=[];" parent="RZcI_MiX01HpQjXzCx-L-17" vertex="1" connectable="0">
          <mxGeometry x="0.2745" y="-1" relative="1" as="geometry">
            <mxPoint y="-8" as="offset" />
          </mxGeometry>
        </mxCell>
        <mxCell id="RZcI_MiX01HpQjXzCx-L-14" value="hat als Anfang &amp;gt;" style="edgeStyle=orthogonalEdgeStyle;rounded=0;orthogonalLoop=1;jettySize=auto;html=1;exitX=1;exitY=0.5;exitDx=0;exitDy=0;endArrow=none;endFill=0;" parent="WIyWlLk6GJQsqaUBKTNV-1" source="RZcI_MiX01HpQjXzCx-L-6" target="zkfFHV4jXpPFQw0GAbJ--25" edge="1">
          <mxGeometry x="-0.0248" y="9" relative="1" as="geometry">
            <mxPoint as="offset" />
          </mxGeometry>
        </mxCell>
        <mxCell id="RZcI_MiX01HpQjXzCx-L-15" value="1" style="text;html=1;strokeColor=none;fillColor=none;align=center;verticalAlign=middle;whiteSpace=wrap;rounded=0;" parent="WIyWlLk6GJQsqaUBKTNV-1" vertex="1">
          <mxGeometry x="380" y="229" width="17" height="30" as="geometry" />
        </mxCell>
        <mxCell id="RZcI_MiX01HpQjXzCx-L-16" value="0..1" style="text;html=1;strokeColor=none;fillColor=none;align=center;verticalAlign=middle;whiteSpace=wrap;rounded=0;" parent="WIyWlLk6GJQsqaUBKTNV-1" vertex="1">
          <mxGeometry x="478" y="230" width="20" height="30" as="geometry" />
        </mxCell>
        <mxCell id="RZcI_MiX01HpQjXzCx-L-19" value="1" style="text;html=1;strokeColor=none;fillColor=none;align=center;verticalAlign=middle;whiteSpace=wrap;rounded=0;" parent="WIyWlLk6GJQsqaUBKTNV-1" vertex="1">
          <mxGeometry x="762" y="205" width="17" height="30" as="geometry" />
        </mxCell>
        <mxCell id="RZcI_MiX01HpQjXzCx-L-20" value="0..1" style="text;html=1;strokeColor=none;fillColor=none;align=center;verticalAlign=middle;whiteSpace=wrap;rounded=0;" parent="WIyWlLk6GJQsqaUBKTNV-1" vertex="1">
          <mxGeometry x="603" y="85" width="20" height="30" as="geometry" />
        </mxCell>
        <mxCell id="RZcI_MiX01HpQjXzCx-L-21" value="«interface»&lt;br&gt;&lt;b&gt;Datenelement&lt;/b&gt;" style="html=1;" parent="WIyWlLk6GJQsqaUBKTNV-1" vertex="1">
          <mxGeometry x="576" y="437" width="110" height="50" as="geometry" />
        </mxCell>
        <mxCell id="RZcI_MiX01HpQjXzCx-L-28" value="1" style="text;html=1;strokeColor=none;fillColor=none;align=center;verticalAlign=middle;whiteSpace=wrap;rounded=0;" parent="WIyWlLk6GJQsqaUBKTNV-1" vertex="1">
          <mxGeometry x="608" y="332" width="17" height="30" as="geometry" />
        </mxCell>
        <mxCell id="RZcI_MiX01HpQjXzCx-L-29" value="1" style="text;html=1;strokeColor=none;fillColor=none;align=center;verticalAlign=middle;whiteSpace=wrap;rounded=0;" parent="WIyWlLk6GJQsqaUBKTNV-1" vertex="1">
          <mxGeometry x="608" y="409" width="17" height="30" as="geometry" />
        </mxCell>
      </root>
    </mxGraphModel>
  </diagram>
  <diagram id="_-3OchPn4VvSYjvtusLc" name="TSI ohne Interface">
    <mxGraphModel dx="946" dy="612" grid="0" gridSize="10" guides="1" tooltips="1" connect="1" arrows="1" fold="1" page="1" pageScale="1" pageWidth="827" pageHeight="1169" math="0" shadow="0">
      <root>
        <mxCell id="7uSMINCbEv9BVDaORK5b-0" />
        <mxCell id="7uSMINCbEv9BVDaORK5b-1" parent="7uSMINCbEv9BVDaORK5b-0" />
        <mxCell id="AfUALTIMM5eBxU5FRyz1-0" value="Liste" style="swimlane;fontStyle=0;align=center;verticalAlign=top;childLayout=stackLayout;horizontal=1;startSize=26;horizontalStack=0;resizeParent=1;resizeLast=0;collapsible=1;marginBottom=0;rounded=0;shadow=0;strokeWidth=1;" parent="7uSMINCbEv9BVDaORK5b-1" vertex="1">
          <mxGeometry x="100" y="110" width="280" height="220" as="geometry">
            <mxRectangle x="130" y="120" width="160" height="26" as="alternateBounds" />
          </mxGeometry>
        </mxCell>
        <mxCell id="AfUALTIMM5eBxU5FRyz1-1" value="- erster: Knoten" style="text;align=left;verticalAlign=top;spacingLeft=4;spacingRight=4;overflow=hidden;rotatable=0;points=[[0,0.5],[1,0.5]];portConstraint=eastwest;" parent="AfUALTIMM5eBxU5FRyz1-0" vertex="1">
          <mxGeometry y="26" width="280" height="26" as="geometry" />
        </mxCell>
        <mxCell id="AfUALTIMM5eBxU5FRyz1-2" value="" style="line;html=1;strokeWidth=1;align=left;verticalAlign=middle;spacingTop=-1;spacingLeft=3;spacingRight=3;rotatable=0;labelPosition=right;points=[];portConstraint=eastwest;" parent="AfUALTIMM5eBxU5FRyz1-0" vertex="1">
          <mxGeometry y="52" width="280" height="8" as="geometry" />
        </mxCell>
        <mxCell id="AfUALTIMM5eBxU5FRyz1-3" value="+ vorneEinfuegen(daten: Patient): void" style="text;align=left;verticalAlign=top;spacingLeft=4;spacingRight=4;overflow=hidden;rotatable=0;points=[[0,0.5],[1,0.5]];portConstraint=eastwest;" parent="AfUALTIMM5eBxU5FRyz1-0" vertex="1">
          <mxGeometry y="60" width="280" height="26" as="geometry" />
        </mxCell>
        <mxCell id="AfUALTIMM5eBxU5FRyz1-4" value="+ hintenEinfuegen(daten: Patient): void" style="text;align=left;verticalAlign=top;spacingLeft=4;spacingRight=4;overflow=hidden;rotatable=0;points=[[0,0.5],[1,0.5]];portConstraint=eastwest;" parent="AfUALTIMM5eBxU5FRyz1-0" vertex="1">
          <mxGeometry y="86" width="280" height="26" as="geometry" />
        </mxCell>
        <mxCell id="AfUALTIMM5eBxU5FRyz1-5" value="+ vorneEntfernen(): void" style="text;align=left;verticalAlign=top;spacingLeft=4;spacingRight=4;overflow=hidden;rotatable=0;points=[[0,0.5],[1,0.5]];portConstraint=eastwest;" parent="AfUALTIMM5eBxU5FRyz1-0" vertex="1">
          <mxGeometry y="112" width="280" height="26" as="geometry" />
        </mxCell>
        <mxCell id="AfUALTIMM5eBxU5FRyz1-6" value="+ hintenEntfernen(): void" style="text;align=left;verticalAlign=top;spacingLeft=4;spacingRight=4;overflow=hidden;rotatable=0;points=[[0,0.5],[1,0.5]];portConstraint=eastwest;" parent="AfUALTIMM5eBxU5FRyz1-0" vertex="1">
          <mxGeometry y="138" width="280" height="26" as="geometry" />
        </mxCell>
        <mxCell id="AfUALTIMM5eBxU5FRyz1-7" value="+ anzahlGeben(): int" style="text;align=left;verticalAlign=top;spacingLeft=4;spacingRight=4;overflow=hidden;rotatable=0;points=[[0,0.5],[1,0.5]];portConstraint=eastwest;" parent="AfUALTIMM5eBxU5FRyz1-0" vertex="1">
          <mxGeometry y="164" width="280" height="26" as="geometry" />
        </mxCell>
        <mxCell id="AfUALTIMM5eBxU5FRyz1-8" value="+ listeDrucken(): void" style="text;align=left;verticalAlign=top;spacingLeft=4;spacingRight=4;overflow=hidden;rotatable=0;points=[[0,0.5],[1,0.5]];portConstraint=eastwest;" parent="AfUALTIMM5eBxU5FRyz1-0" vertex="1">
          <mxGeometry y="190" width="280" height="26" as="geometry" />
        </mxCell>
        <mxCell id="AfUALTIMM5eBxU5FRyz1-10" value="Patient" style="swimlane;fontStyle=0;align=center;verticalAlign=top;childLayout=stackLayout;horizontal=1;startSize=26;horizontalStack=0;resizeParent=1;resizeLast=0;collapsible=1;marginBottom=0;rounded=0;shadow=0;strokeWidth=1;" parent="7uSMINCbEv9BVDaORK5b-1" vertex="1">
          <mxGeometry x="534" y="448" width="196" height="202" as="geometry">
            <mxRectangle x="130" y="380" width="160" height="26" as="alternateBounds" />
          </mxGeometry>
        </mxCell>
        <mxCell id="AfUALTIMM5eBxU5FRyz1-11" value="- name: String" style="text;align=left;verticalAlign=top;spacingLeft=4;spacingRight=4;overflow=hidden;rotatable=0;points=[[0,0.5],[1,0.5]];portConstraint=eastwest;" parent="AfUALTIMM5eBxU5FRyz1-10" vertex="1">
          <mxGeometry y="26" width="196" height="26" as="geometry" />
        </mxCell>
        <mxCell id="AfUALTIMM5eBxU5FRyz1-12" value="- pnummer: int" style="text;align=left;verticalAlign=top;spacingLeft=4;spacingRight=4;overflow=hidden;rotatable=0;points=[[0,0.5],[1,0.5]];portConstraint=eastwest;rounded=0;shadow=0;html=0;" parent="AfUALTIMM5eBxU5FRyz1-10" vertex="1">
          <mxGeometry y="52" width="196" height="26" as="geometry" />
        </mxCell>
        <mxCell id="AfUALTIMM5eBxU5FRyz1-13" value="- geburtsjahr: int" style="text;align=left;verticalAlign=top;spacingLeft=4;spacingRight=4;overflow=hidden;rotatable=0;points=[[0,0.5],[1,0.5]];portConstraint=eastwest;fontStyle=0" parent="AfUALTIMM5eBxU5FRyz1-10" vertex="1">
          <mxGeometry y="78" width="196" height="26" as="geometry" />
        </mxCell>
        <mxCell id="AfUALTIMM5eBxU5FRyz1-14" value="" style="line;html=1;strokeWidth=1;align=left;verticalAlign=middle;spacingTop=-1;spacingLeft=3;spacingRight=3;rotatable=0;labelPosition=right;points=[];portConstraint=eastwest;" parent="AfUALTIMM5eBxU5FRyz1-10" vertex="1">
          <mxGeometry y="104" width="196" height="8" as="geometry" />
        </mxCell>
        <mxCell id="AfUALTIMM5eBxU5FRyz1-15" value="+ schluesselGeben(): String" style="text;align=left;verticalAlign=top;spacingLeft=4;spacingRight=4;overflow=hidden;rotatable=0;points=[[0,0.5],[1,0.5]];portConstraint=eastwest;" parent="AfUALTIMM5eBxU5FRyz1-10" vertex="1">
          <mxGeometry y="112" width="196" height="26" as="geometry" />
        </mxCell>
        <mxCell id="AfUALTIMM5eBxU5FRyz1-16" value="+ infoGeben(): String" style="text;align=left;verticalAlign=top;spacingLeft=4;spacingRight=4;overflow=hidden;rotatable=0;points=[[0,0.5],[1,0.5]];portConstraint=eastwest;" parent="AfUALTIMM5eBxU5FRyz1-10" vertex="1">
          <mxGeometry y="138" width="196" height="26" as="geometry" />
        </mxCell>
        <mxCell id="AfUALTIMM5eBxU5FRyz1-17" value="+ vergleiche(daten: Patient): int" style="text;align=left;verticalAlign=top;spacingLeft=4;spacingRight=4;overflow=hidden;rotatable=0;points=[[0,0.5],[1,0.5]];portConstraint=eastwest;" parent="AfUALTIMM5eBxU5FRyz1-10" vertex="1">
          <mxGeometry y="164" width="196" height="26" as="geometry" />
        </mxCell>
        <mxCell id="AfUALTIMM5eBxU5FRyz1-18" style="edgeStyle=orthogonalEdgeStyle;rounded=0;orthogonalLoop=1;jettySize=auto;html=1;exitX=0.5;exitY=1;exitDx=0;exitDy=0;entryX=0.5;entryY=0;entryDx=0;entryDy=0;endArrow=none;endFill=0;" parent="7uSMINCbEv9BVDaORK5b-1" source="AfUALTIMM5eBxU5FRyz1-20" target="AfUALTIMM5eBxU5FRyz1-10" edge="1">
          <mxGeometry relative="1" as="geometry">
            <mxPoint x="631" y="437" as="targetPoint" />
          </mxGeometry>
        </mxCell>
        <mxCell id="AfUALTIMM5eBxU5FRyz1-19" value="hat als Inhalt &amp;gt;" style="edgeLabel;html=1;align=center;verticalAlign=middle;resizable=0;points=[];rotation=90;" parent="AfUALTIMM5eBxU5FRyz1-18" vertex="1" connectable="0">
          <mxGeometry x="-0.0685" y="2" relative="1" as="geometry">
            <mxPoint x="12" y="2" as="offset" />
          </mxGeometry>
        </mxCell>
        <mxCell id="AfUALTIMM5eBxU5FRyz1-20" value="Knoten" style="swimlane;fontStyle=0;align=center;verticalAlign=top;childLayout=stackLayout;horizontal=1;startSize=26;horizontalStack=0;resizeParent=1;resizeLast=0;collapsible=1;marginBottom=0;rounded=0;shadow=0;strokeWidth=1;" parent="7uSMINCbEv9BVDaORK5b-1" vertex="1">
          <mxGeometry x="501" y="110" width="262" height="222" as="geometry">
            <mxRectangle x="550" y="140" width="160" height="26" as="alternateBounds" />
          </mxGeometry>
        </mxCell>
        <mxCell id="AfUALTIMM5eBxU5FRyz1-21" value="- naechster: Knoten" style="text;align=left;verticalAlign=top;spacingLeft=4;spacingRight=4;overflow=hidden;rotatable=0;points=[[0,0.5],[1,0.5]];portConstraint=eastwest;" parent="AfUALTIMM5eBxU5FRyz1-20" vertex="1">
          <mxGeometry y="26" width="262" height="26" as="geometry" />
        </mxCell>
        <mxCell id="AfUALTIMM5eBxU5FRyz1-22" value="- daten: Patient" style="text;align=left;verticalAlign=top;spacingLeft=4;spacingRight=4;overflow=hidden;rotatable=0;points=[[0,0.5],[1,0.5]];portConstraint=eastwest;rounded=0;shadow=0;html=0;" parent="AfUALTIMM5eBxU5FRyz1-20" vertex="1">
          <mxGeometry y="52" width="262" height="26" as="geometry" />
        </mxCell>
        <mxCell id="AfUALTIMM5eBxU5FRyz1-23" value="" style="line;html=1;strokeWidth=1;align=left;verticalAlign=middle;spacingTop=-1;spacingLeft=3;spacingRight=3;rotatable=0;labelPosition=right;points=[];portConstraint=eastwest;" parent="AfUALTIMM5eBxU5FRyz1-20" vertex="1">
          <mxGeometry y="78" width="262" height="8" as="geometry" />
        </mxCell>
        <mxCell id="AfUALTIMM5eBxU5FRyz1-24" value="+ hintenEinfuegen(daten: Patient): void" style="text;align=left;verticalAlign=top;spacingLeft=4;spacingRight=4;overflow=hidden;rotatable=0;points=[[0,0.5],[1,0.5]];portConstraint=eastwest;" parent="AfUALTIMM5eBxU5FRyz1-20" vertex="1">
          <mxGeometry y="86" width="262" height="26" as="geometry" />
        </mxCell>
        <mxCell id="AfUALTIMM5eBxU5FRyz1-25" value="+ hintenEntfernen(): Knoten" style="text;align=left;verticalAlign=top;spacingLeft=4;spacingRight=4;overflow=hidden;rotatable=0;points=[[0,0.5],[1,0.5]];portConstraint=eastwest;" parent="AfUALTIMM5eBxU5FRyz1-20" vertex="1">
          <mxGeometry y="112" width="262" height="26" as="geometry" />
        </mxCell>
        <mxCell id="AfUALTIMM5eBxU5FRyz1-26" value="+ listeDrucken(): void" style="text;align=left;verticalAlign=top;spacingLeft=4;spacingRight=4;overflow=hidden;rotatable=0;points=[[0,0.5],[1,0.5]];portConstraint=eastwest;" parent="AfUALTIMM5eBxU5FRyz1-20" vertex="1">
          <mxGeometry y="138" width="262" height="26" as="geometry" />
        </mxCell>
        <mxCell id="AfUALTIMM5eBxU5FRyz1-27" value="+ anzahlGeben(): int" style="text;align=left;verticalAlign=top;spacingLeft=4;spacingRight=4;overflow=hidden;rotatable=0;points=[[0,0.5],[1,0.5]];portConstraint=eastwest;" parent="AfUALTIMM5eBxU5FRyz1-20" vertex="1">
          <mxGeometry y="164" width="262" height="20" as="geometry" />
        </mxCell>
        <mxCell id="AfUALTIMM5eBxU5FRyz1-28" style="edgeStyle=orthogonalEdgeStyle;rounded=0;orthogonalLoop=1;jettySize=auto;html=1;exitX=1;exitY=0.5;exitDx=0;exitDy=0;endArrow=none;endFill=0;entryX=0.5;entryY=0;entryDx=0;entryDy=0;" parent="AfUALTIMM5eBxU5FRyz1-20" source="AfUALTIMM5eBxU5FRyz1-24" target="AfUALTIMM5eBxU5FRyz1-20" edge="1">
          <mxGeometry relative="1" as="geometry">
            <mxPoint x="197" y="-101" as="targetPoint" />
            <Array as="points">
              <mxPoint x="281" y="99" />
              <mxPoint x="281" y="-61" />
              <mxPoint x="125" y="-61" />
            </Array>
          </mxGeometry>
        </mxCell>
        <mxCell id="AfUALTIMM5eBxU5FRyz1-29" value="&amp;lt; hat als Nachfolger" style="edgeLabel;html=1;align=center;verticalAlign=middle;resizable=0;points=[];" parent="AfUALTIMM5eBxU5FRyz1-28" vertex="1" connectable="0">
          <mxGeometry x="0.2745" y="-1" relative="1" as="geometry">
            <mxPoint y="-8" as="offset" />
          </mxGeometry>
        </mxCell>
        <mxCell id="AfUALTIMM5eBxU5FRyz1-30" value="hat als Anfang &amp;gt;" style="edgeStyle=orthogonalEdgeStyle;rounded=0;orthogonalLoop=1;jettySize=auto;html=1;exitX=1;exitY=0.5;exitDx=0;exitDy=0;endArrow=none;endFill=0;" parent="7uSMINCbEv9BVDaORK5b-1" source="AfUALTIMM5eBxU5FRyz1-5" target="AfUALTIMM5eBxU5FRyz1-25" edge="1">
          <mxGeometry x="-0.0248" y="9" relative="1" as="geometry">
            <mxPoint as="offset" />
          </mxGeometry>
        </mxCell>
        <mxCell id="AfUALTIMM5eBxU5FRyz1-31" value="1" style="text;html=1;strokeColor=none;fillColor=none;align=center;verticalAlign=middle;whiteSpace=wrap;rounded=0;" parent="7uSMINCbEv9BVDaORK5b-1" vertex="1">
          <mxGeometry x="380" y="229" width="17" height="30" as="geometry" />
        </mxCell>
        <mxCell id="AfUALTIMM5eBxU5FRyz1-32" value="0..1" style="text;html=1;strokeColor=none;fillColor=none;align=center;verticalAlign=middle;whiteSpace=wrap;rounded=0;" parent="7uSMINCbEv9BVDaORK5b-1" vertex="1">
          <mxGeometry x="478" y="230" width="20" height="30" as="geometry" />
        </mxCell>
        <mxCell id="AfUALTIMM5eBxU5FRyz1-33" value="1" style="text;html=1;strokeColor=none;fillColor=none;align=center;verticalAlign=middle;whiteSpace=wrap;rounded=0;" parent="7uSMINCbEv9BVDaORK5b-1" vertex="1">
          <mxGeometry x="762" y="205" width="17" height="30" as="geometry" />
        </mxCell>
        <mxCell id="AfUALTIMM5eBxU5FRyz1-34" value="0..1" style="text;html=1;strokeColor=none;fillColor=none;align=center;verticalAlign=middle;whiteSpace=wrap;rounded=0;" parent="7uSMINCbEv9BVDaORK5b-1" vertex="1">
          <mxGeometry x="603" y="85" width="20" height="30" as="geometry" />
        </mxCell>
        <mxCell id="AfUALTIMM5eBxU5FRyz1-36" value="1" style="text;html=1;strokeColor=none;fillColor=none;align=center;verticalAlign=middle;whiteSpace=wrap;rounded=0;" parent="7uSMINCbEv9BVDaORK5b-1" vertex="1">
          <mxGeometry x="611" y="330" width="17" height="30" as="geometry" />
        </mxCell>
        <mxCell id="AfUALTIMM5eBxU5FRyz1-37" value="1" style="text;html=1;strokeColor=none;fillColor=none;align=center;verticalAlign=middle;whiteSpace=wrap;rounded=0;" parent="7uSMINCbEv9BVDaORK5b-1" vertex="1">
          <mxGeometry x="614" y="421" width="17" height="30" as="geometry" />
        </mxCell>
      </root>
    </mxGraphModel>
  </diagram>
  <diagram id="2_3Z2EW8XQRtwUpzaThQ" name="Einfache KD">
    <mxGraphModel dx="946" dy="612" grid="0" gridSize="10" guides="1" tooltips="1" connect="1" arrows="1" fold="1" page="1" pageScale="1" pageWidth="827" pageHeight="1169" math="0" shadow="0">
      <root>
        <mxCell id="nD0CtYyEcKMA2cU-OftC-0" />
        <mxCell id="nD0CtYyEcKMA2cU-OftC-1" parent="nD0CtYyEcKMA2cU-OftC-0" />
        <mxCell id="nD0CtYyEcKMA2cU-OftC-2" value="Liste" style="swimlane;fontStyle=0;align=center;verticalAlign=top;childLayout=stackLayout;horizontal=1;startSize=26;horizontalStack=0;resizeParent=1;resizeLast=0;collapsible=1;marginBottom=0;rounded=0;shadow=0;strokeWidth=1;" vertex="1" collapsed="1" parent="nD0CtYyEcKMA2cU-OftC-1">
          <mxGeometry x="173" y="110" width="99" height="26" as="geometry">
            <mxRectangle x="100" y="110" width="280" height="220" as="alternateBounds" />
          </mxGeometry>
        </mxCell>
        <mxCell id="nD0CtYyEcKMA2cU-OftC-3" value="- erster: Knoten" style="text;align=left;verticalAlign=top;spacingLeft=4;spacingRight=4;overflow=hidden;rotatable=0;points=[[0,0.5],[1,0.5]];portConstraint=eastwest;" vertex="1" parent="nD0CtYyEcKMA2cU-OftC-2">
          <mxGeometry y="26" width="99" height="26" as="geometry" />
        </mxCell>
        <mxCell id="nD0CtYyEcKMA2cU-OftC-4" value="" style="line;html=1;strokeWidth=1;align=left;verticalAlign=middle;spacingTop=-1;spacingLeft=3;spacingRight=3;rotatable=0;labelPosition=right;points=[];portConstraint=eastwest;" vertex="1" parent="nD0CtYyEcKMA2cU-OftC-2">
          <mxGeometry y="52" width="99" height="8" as="geometry" />
        </mxCell>
        <mxCell id="nD0CtYyEcKMA2cU-OftC-5" value="+ vorneEinfuegen(Daten: Datenelement): void" style="text;align=left;verticalAlign=top;spacingLeft=4;spacingRight=4;overflow=hidden;rotatable=0;points=[[0,0.5],[1,0.5]];portConstraint=eastwest;" vertex="1" parent="nD0CtYyEcKMA2cU-OftC-2">
          <mxGeometry y="60" width="99" height="26" as="geometry" />
        </mxCell>
        <mxCell id="nD0CtYyEcKMA2cU-OftC-6" value="+ hintenEinfuegen(Daten: Datenelement): void" style="text;align=left;verticalAlign=top;spacingLeft=4;spacingRight=4;overflow=hidden;rotatable=0;points=[[0,0.5],[1,0.5]];portConstraint=eastwest;" vertex="1" parent="nD0CtYyEcKMA2cU-OftC-2">
          <mxGeometry y="86" width="99" height="26" as="geometry" />
        </mxCell>
        <mxCell id="nD0CtYyEcKMA2cU-OftC-7" value="+ vorneEntfernen(): void" style="text;align=left;verticalAlign=top;spacingLeft=4;spacingRight=4;overflow=hidden;rotatable=0;points=[[0,0.5],[1,0.5]];portConstraint=eastwest;" vertex="1" parent="nD0CtYyEcKMA2cU-OftC-2">
          <mxGeometry y="112" width="99" height="26" as="geometry" />
        </mxCell>
        <mxCell id="nD0CtYyEcKMA2cU-OftC-8" value="+ hintenEntfernen(): void" style="text;align=left;verticalAlign=top;spacingLeft=4;spacingRight=4;overflow=hidden;rotatable=0;points=[[0,0.5],[1,0.5]];portConstraint=eastwest;" vertex="1" parent="nD0CtYyEcKMA2cU-OftC-2">
          <mxGeometry y="138" width="99" height="26" as="geometry" />
        </mxCell>
        <mxCell id="nD0CtYyEcKMA2cU-OftC-9" value="+ anzahlGeben(): int" style="text;align=left;verticalAlign=top;spacingLeft=4;spacingRight=4;overflow=hidden;rotatable=0;points=[[0,0.5],[1,0.5]];portConstraint=eastwest;" vertex="1" parent="nD0CtYyEcKMA2cU-OftC-2">
          <mxGeometry y="164" width="99" height="26" as="geometry" />
        </mxCell>
        <mxCell id="nD0CtYyEcKMA2cU-OftC-10" value="+ listeDrucken(): void" style="text;align=left;verticalAlign=top;spacingLeft=4;spacingRight=4;overflow=hidden;rotatable=0;points=[[0,0.5],[1,0.5]];portConstraint=eastwest;" vertex="1" parent="nD0CtYyEcKMA2cU-OftC-2">
          <mxGeometry y="190" width="99" height="26" as="geometry" />
        </mxCell>
        <mxCell id="nD0CtYyEcKMA2cU-OftC-11" style="edgeStyle=orthogonalEdgeStyle;rounded=0;orthogonalLoop=1;jettySize=auto;html=1;exitX=0.5;exitY=0;exitDx=0;exitDy=0;entryX=0.5;entryY=1;entryDx=0;entryDy=0;endArrow=block;endFill=0;dashed=1;" edge="1" parent="nD0CtYyEcKMA2cU-OftC-1" source="nD0CtYyEcKMA2cU-OftC-12" target="nD0CtYyEcKMA2cU-OftC-37">
          <mxGeometry relative="1" as="geometry" />
        </mxCell>
        <mxCell id="nD0CtYyEcKMA2cU-OftC-12" value="Patient" style="swimlane;fontStyle=0;align=center;verticalAlign=top;childLayout=stackLayout;horizontal=1;startSize=26;horizontalStack=0;resizeParent=1;resizeLast=0;collapsible=1;marginBottom=0;rounded=0;shadow=0;strokeWidth=1;" vertex="1" collapsed="1" parent="nD0CtYyEcKMA2cU-OftC-1">
          <mxGeometry x="397" y="315" width="101" height="26" as="geometry">
            <mxRectangle x="351" y="397" width="232" height="202" as="alternateBounds" />
          </mxGeometry>
        </mxCell>
        <mxCell id="nD0CtYyEcKMA2cU-OftC-13" value="- name: String" style="text;align=left;verticalAlign=top;spacingLeft=4;spacingRight=4;overflow=hidden;rotatable=0;points=[[0,0.5],[1,0.5]];portConstraint=eastwest;" vertex="1" parent="nD0CtYyEcKMA2cU-OftC-12">
          <mxGeometry y="26" width="101" height="26" as="geometry" />
        </mxCell>
        <mxCell id="nD0CtYyEcKMA2cU-OftC-14" value="- pnummer: int" style="text;align=left;verticalAlign=top;spacingLeft=4;spacingRight=4;overflow=hidden;rotatable=0;points=[[0,0.5],[1,0.5]];portConstraint=eastwest;rounded=0;shadow=0;html=0;" vertex="1" parent="nD0CtYyEcKMA2cU-OftC-12">
          <mxGeometry y="52" width="101" height="26" as="geometry" />
        </mxCell>
        <mxCell id="nD0CtYyEcKMA2cU-OftC-15" value="- geburtsjahr: int" style="text;align=left;verticalAlign=top;spacingLeft=4;spacingRight=4;overflow=hidden;rotatable=0;points=[[0,0.5],[1,0.5]];portConstraint=eastwest;fontStyle=0" vertex="1" parent="nD0CtYyEcKMA2cU-OftC-12">
          <mxGeometry y="78" width="101" height="26" as="geometry" />
        </mxCell>
        <mxCell id="nD0CtYyEcKMA2cU-OftC-16" value="" style="line;html=1;strokeWidth=1;align=left;verticalAlign=middle;spacingTop=-1;spacingLeft=3;spacingRight=3;rotatable=0;labelPosition=right;points=[];portConstraint=eastwest;" vertex="1" parent="nD0CtYyEcKMA2cU-OftC-12">
          <mxGeometry y="104" width="101" height="8" as="geometry" />
        </mxCell>
        <mxCell id="nD0CtYyEcKMA2cU-OftC-17" value="+ schluesselGeben(): String" style="text;align=left;verticalAlign=top;spacingLeft=4;spacingRight=4;overflow=hidden;rotatable=0;points=[[0,0.5],[1,0.5]];portConstraint=eastwest;" vertex="1" parent="nD0CtYyEcKMA2cU-OftC-12">
          <mxGeometry y="112" width="101" height="26" as="geometry" />
        </mxCell>
        <mxCell id="nD0CtYyEcKMA2cU-OftC-18" value="+ infoGeben(): String" style="text;align=left;verticalAlign=top;spacingLeft=4;spacingRight=4;overflow=hidden;rotatable=0;points=[[0,0.5],[1,0.5]];portConstraint=eastwest;" vertex="1" parent="nD0CtYyEcKMA2cU-OftC-12">
          <mxGeometry y="138" width="101" height="26" as="geometry" />
        </mxCell>
        <mxCell id="nD0CtYyEcKMA2cU-OftC-19" value="+ vergleiche(daten: Datenelement): int" style="text;align=left;verticalAlign=top;spacingLeft=4;spacingRight=4;overflow=hidden;rotatable=0;points=[[0,0.5],[1,0.5]];portConstraint=eastwest;" vertex="1" parent="nD0CtYyEcKMA2cU-OftC-12">
          <mxGeometry y="164" width="101" height="26" as="geometry" />
        </mxCell>
        <mxCell id="nD0CtYyEcKMA2cU-OftC-20" style="edgeStyle=orthogonalEdgeStyle;rounded=0;orthogonalLoop=1;jettySize=auto;html=1;exitX=0.5;exitY=1;exitDx=0;exitDy=0;entryX=0.5;entryY=0;entryDx=0;entryDy=0;endArrow=none;endFill=0;" edge="1" parent="nD0CtYyEcKMA2cU-OftC-1" source="nD0CtYyEcKMA2cU-OftC-22" target="nD0CtYyEcKMA2cU-OftC-37">
          <mxGeometry relative="1" as="geometry" />
        </mxCell>
        <mxCell id="nD0CtYyEcKMA2cU-OftC-21" value="hat als Inhalt &amp;gt;" style="edgeLabel;html=1;align=center;verticalAlign=middle;resizable=0;points=[];rotation=90;" vertex="1" connectable="0" parent="nD0CtYyEcKMA2cU-OftC-20">
          <mxGeometry x="-0.0685" y="2" relative="1" as="geometry">
            <mxPoint x="12" y="2" as="offset" />
          </mxGeometry>
        </mxCell>
        <mxCell id="nD0CtYyEcKMA2cU-OftC-22" value="Knoten" style="swimlane;fontStyle=0;align=center;verticalAlign=top;childLayout=stackLayout;horizontal=1;startSize=26;horizontalStack=0;resizeParent=1;resizeLast=0;collapsible=1;marginBottom=0;rounded=0;shadow=0;strokeWidth=1;" vertex="1" collapsed="1" parent="nD0CtYyEcKMA2cU-OftC-1">
          <mxGeometry x="397" y="110" width="101" height="26" as="geometry">
            <mxRectangle x="501" y="110" width="262" height="222" as="alternateBounds" />
          </mxGeometry>
        </mxCell>
        <mxCell id="nD0CtYyEcKMA2cU-OftC-23" value="- naechster: Knoten" style="text;align=left;verticalAlign=top;spacingLeft=4;spacingRight=4;overflow=hidden;rotatable=0;points=[[0,0.5],[1,0.5]];portConstraint=eastwest;" vertex="1" parent="nD0CtYyEcKMA2cU-OftC-22">
          <mxGeometry y="26" width="101" height="26" as="geometry" />
        </mxCell>
        <mxCell id="nD0CtYyEcKMA2cU-OftC-24" value="- daten: Datenelement" style="text;align=left;verticalAlign=top;spacingLeft=4;spacingRight=4;overflow=hidden;rotatable=0;points=[[0,0.5],[1,0.5]];portConstraint=eastwest;rounded=0;shadow=0;html=0;" vertex="1" parent="nD0CtYyEcKMA2cU-OftC-22">
          <mxGeometry y="52" width="101" height="26" as="geometry" />
        </mxCell>
        <mxCell id="nD0CtYyEcKMA2cU-OftC-25" value="" style="line;html=1;strokeWidth=1;align=left;verticalAlign=middle;spacingTop=-1;spacingLeft=3;spacingRight=3;rotatable=0;labelPosition=right;points=[];portConstraint=eastwest;" vertex="1" parent="nD0CtYyEcKMA2cU-OftC-22">
          <mxGeometry y="78" width="101" height="8" as="geometry" />
        </mxCell>
        <mxCell id="nD0CtYyEcKMA2cU-OftC-26" value="+ hintenEinfuegen(daten: Datenelement): void" style="text;align=left;verticalAlign=top;spacingLeft=4;spacingRight=4;overflow=hidden;rotatable=0;points=[[0,0.5],[1,0.5]];portConstraint=eastwest;" vertex="1" parent="nD0CtYyEcKMA2cU-OftC-22">
          <mxGeometry y="86" width="101" height="26" as="geometry" />
        </mxCell>
        <mxCell id="nD0CtYyEcKMA2cU-OftC-27" value="+ hintenEntfernen(): Knoten" style="text;align=left;verticalAlign=top;spacingLeft=4;spacingRight=4;overflow=hidden;rotatable=0;points=[[0,0.5],[1,0.5]];portConstraint=eastwest;" vertex="1" parent="nD0CtYyEcKMA2cU-OftC-22">
          <mxGeometry y="112" width="101" height="26" as="geometry" />
        </mxCell>
        <mxCell id="nD0CtYyEcKMA2cU-OftC-28" value="+ listeDrucken(): void" style="text;align=left;verticalAlign=top;spacingLeft=4;spacingRight=4;overflow=hidden;rotatable=0;points=[[0,0.5],[1,0.5]];portConstraint=eastwest;" vertex="1" parent="nD0CtYyEcKMA2cU-OftC-22">
          <mxGeometry y="138" width="101" height="26" as="geometry" />
        </mxCell>
        <mxCell id="nD0CtYyEcKMA2cU-OftC-29" value="+ anzahlGeben(): int" style="text;align=left;verticalAlign=top;spacingLeft=4;spacingRight=4;overflow=hidden;rotatable=0;points=[[0,0.5],[1,0.5]];portConstraint=eastwest;" vertex="1" parent="nD0CtYyEcKMA2cU-OftC-22">
          <mxGeometry y="164" width="101" height="20" as="geometry" />
        </mxCell>
        <mxCell id="nD0CtYyEcKMA2cU-OftC-30" style="edgeStyle=orthogonalEdgeStyle;rounded=0;orthogonalLoop=1;jettySize=auto;html=1;exitX=1;exitY=0.5;exitDx=0;exitDy=0;endArrow=none;endFill=0;entryX=0.5;entryY=0;entryDx=0;entryDy=0;" edge="1" parent="nD0CtYyEcKMA2cU-OftC-22" source="nD0CtYyEcKMA2cU-OftC-26" target="nD0CtYyEcKMA2cU-OftC-22">
          <mxGeometry relative="1" as="geometry">
            <mxPoint x="197" y="-101" as="targetPoint" />
            <Array as="points">
              <mxPoint x="281" y="99" />
              <mxPoint x="281" y="-61" />
              <mxPoint x="125" y="-61" />
            </Array>
          </mxGeometry>
        </mxCell>
        <mxCell id="nD0CtYyEcKMA2cU-OftC-31" value="&amp;lt; hat als Nachfolger" style="edgeLabel;html=1;align=center;verticalAlign=middle;resizable=0;points=[];" vertex="1" connectable="0" parent="nD0CtYyEcKMA2cU-OftC-30">
          <mxGeometry x="0.2745" y="-1" relative="1" as="geometry">
            <mxPoint y="-8" as="offset" />
          </mxGeometry>
        </mxCell>
        <mxCell id="nD0CtYyEcKMA2cU-OftC-32" value="hat als Anfang &amp;gt;" style="edgeStyle=orthogonalEdgeStyle;rounded=0;orthogonalLoop=1;jettySize=auto;html=1;exitX=1;exitY=0.5;exitDx=0;exitDy=0;endArrow=none;endFill=0;" edge="1" parent="nD0CtYyEcKMA2cU-OftC-1" source="nD0CtYyEcKMA2cU-OftC-7" target="nD0CtYyEcKMA2cU-OftC-27">
          <mxGeometry x="-0.0248" y="9" relative="1" as="geometry">
            <mxPoint as="offset" />
          </mxGeometry>
        </mxCell>
        <mxCell id="nD0CtYyEcKMA2cU-OftC-33" value="1" style="text;html=1;strokeColor=none;fillColor=none;align=center;verticalAlign=middle;whiteSpace=wrap;rounded=0;" vertex="1" parent="nD0CtYyEcKMA2cU-OftC-1">
          <mxGeometry x="272" y="118" width="17" height="30" as="geometry" />
        </mxCell>
        <mxCell id="nD0CtYyEcKMA2cU-OftC-34" value="0..1" style="text;html=1;strokeColor=none;fillColor=none;align=center;verticalAlign=middle;whiteSpace=wrap;rounded=0;" vertex="1" parent="nD0CtYyEcKMA2cU-OftC-1">
          <mxGeometry x="374" y="118" width="20" height="30" as="geometry" />
        </mxCell>
        <mxCell id="nD0CtYyEcKMA2cU-OftC-36" value="0..1" style="text;html=1;strokeColor=none;fillColor=none;align=center;verticalAlign=middle;whiteSpace=wrap;rounded=0;" vertex="1" parent="nD0CtYyEcKMA2cU-OftC-1">
          <mxGeometry x="424" y="85" width="20" height="30" as="geometry" />
        </mxCell>
        <mxCell id="nD0CtYyEcKMA2cU-OftC-37" value="«interface»&lt;br&gt;&lt;b&gt;Datenelement&lt;/b&gt;" style="html=1;" vertex="1" parent="nD0CtYyEcKMA2cU-OftC-1">
          <mxGeometry x="392.5" y="227" width="110" height="50" as="geometry" />
        </mxCell>
        <mxCell id="nD0CtYyEcKMA2cU-OftC-38" value="1" style="text;html=1;strokeColor=none;fillColor=none;align=center;verticalAlign=middle;whiteSpace=wrap;rounded=0;" vertex="1" parent="nD0CtYyEcKMA2cU-OftC-1">
          <mxGeometry x="430" y="133" width="17" height="30" as="geometry" />
        </mxCell>
        <mxCell id="nD0CtYyEcKMA2cU-OftC-39" value="1" style="text;html=1;strokeColor=none;fillColor=none;align=center;verticalAlign=middle;whiteSpace=wrap;rounded=0;" vertex="1" parent="nD0CtYyEcKMA2cU-OftC-1">
          <mxGeometry x="430" y="197" width="17" height="30" as="geometry" />
        </mxCell>
        <mxCell id="nD0CtYyEcKMA2cU-OftC-40" style="edgeStyle=orthogonalEdgeStyle;rounded=0;orthogonalLoop=1;jettySize=auto;html=1;exitX=1;exitY=0.5;exitDx=0;exitDy=0;entryX=0.5;entryY=0;entryDx=0;entryDy=0;endArrow=none;endFill=0;" edge="1" parent="nD0CtYyEcKMA2cU-OftC-1" source="nD0CtYyEcKMA2cU-OftC-22" target="nD0CtYyEcKMA2cU-OftC-22">
          <mxGeometry relative="1" as="geometry">
            <Array as="points">
              <mxPoint x="518" y="123" />
              <mxPoint x="518" y="70" />
              <mxPoint x="448" y="70" />
            </Array>
          </mxGeometry>
        </mxCell>
        <mxCell id="nD0CtYyEcKMA2cU-OftC-41" value="&amp;lt; hat als Nachfolger" style="edgeLabel;html=1;align=center;verticalAlign=middle;resizable=0;points=[];" vertex="1" connectable="0" parent="nD0CtYyEcKMA2cU-OftC-40">
          <mxGeometry x="0.0027" y="-2" relative="1" as="geometry">
            <mxPoint x="4" y="-8" as="offset" />
          </mxGeometry>
        </mxCell>
        <mxCell id="nD0CtYyEcKMA2cU-OftC-42" value="1" style="text;html=1;strokeColor=none;fillColor=none;align=center;verticalAlign=middle;whiteSpace=wrap;rounded=0;" vertex="1" parent="nD0CtYyEcKMA2cU-OftC-1">
          <mxGeometry x="498" y="120" width="17" height="30" as="geometry" />
        </mxCell>
        <mxCell id="hhkXRylYwfFcbi-KfXau-0" value="Liste" style="swimlane;fontStyle=0;align=center;verticalAlign=top;childLayout=stackLayout;horizontal=1;startSize=26;horizontalStack=0;resizeParent=1;resizeLast=0;collapsible=1;marginBottom=0;rounded=0;shadow=0;strokeWidth=1;" vertex="1" collapsed="1" parent="nD0CtYyEcKMA2cU-OftC-1">
          <mxGeometry x="205" y="527" width="100" height="26" as="geometry">
            <mxRectangle x="82" y="440" width="280" height="220" as="alternateBounds" />
          </mxGeometry>
        </mxCell>
        <mxCell id="hhkXRylYwfFcbi-KfXau-1" value="- erster: Knoten" style="text;align=left;verticalAlign=top;spacingLeft=4;spacingRight=4;overflow=hidden;rotatable=0;points=[[0,0.5],[1,0.5]];portConstraint=eastwest;" vertex="1" parent="hhkXRylYwfFcbi-KfXau-0">
          <mxGeometry y="26" width="100" height="26" as="geometry" />
        </mxCell>
        <mxCell id="hhkXRylYwfFcbi-KfXau-2" value="" style="line;html=1;strokeWidth=1;align=left;verticalAlign=middle;spacingTop=-1;spacingLeft=3;spacingRight=3;rotatable=0;labelPosition=right;points=[];portConstraint=eastwest;" vertex="1" parent="hhkXRylYwfFcbi-KfXau-0">
          <mxGeometry y="52" width="100" height="8" as="geometry" />
        </mxCell>
        <mxCell id="hhkXRylYwfFcbi-KfXau-3" value="+ vorneEinfuegen(Daten: Patient): void" style="text;align=left;verticalAlign=top;spacingLeft=4;spacingRight=4;overflow=hidden;rotatable=0;points=[[0,0.5],[1,0.5]];portConstraint=eastwest;" vertex="1" parent="hhkXRylYwfFcbi-KfXau-0">
          <mxGeometry y="60" width="100" height="26" as="geometry" />
        </mxCell>
        <mxCell id="hhkXRylYwfFcbi-KfXau-4" value="+ hintenEinfuegen(Daten: Patient): void" style="text;align=left;verticalAlign=top;spacingLeft=4;spacingRight=4;overflow=hidden;rotatable=0;points=[[0,0.5],[1,0.5]];portConstraint=eastwest;" vertex="1" parent="hhkXRylYwfFcbi-KfXau-0">
          <mxGeometry y="86" width="100" height="26" as="geometry" />
        </mxCell>
        <mxCell id="hhkXRylYwfFcbi-KfXau-5" value="+ vorneEntfernen(): void" style="text;align=left;verticalAlign=top;spacingLeft=4;spacingRight=4;overflow=hidden;rotatable=0;points=[[0,0.5],[1,0.5]];portConstraint=eastwest;" vertex="1" parent="hhkXRylYwfFcbi-KfXau-0">
          <mxGeometry y="112" width="100" height="26" as="geometry" />
        </mxCell>
        <mxCell id="hhkXRylYwfFcbi-KfXau-6" value="+ hintenEntfernen(): void" style="text;align=left;verticalAlign=top;spacingLeft=4;spacingRight=4;overflow=hidden;rotatable=0;points=[[0,0.5],[1,0.5]];portConstraint=eastwest;" vertex="1" parent="hhkXRylYwfFcbi-KfXau-0">
          <mxGeometry y="138" width="100" height="26" as="geometry" />
        </mxCell>
        <mxCell id="hhkXRylYwfFcbi-KfXau-7" value="+ anzahlGeben(): int" style="text;align=left;verticalAlign=top;spacingLeft=4;spacingRight=4;overflow=hidden;rotatable=0;points=[[0,0.5],[1,0.5]];portConstraint=eastwest;" vertex="1" parent="hhkXRylYwfFcbi-KfXau-0">
          <mxGeometry y="164" width="100" height="26" as="geometry" />
        </mxCell>
        <mxCell id="hhkXRylYwfFcbi-KfXau-8" value="+ listeDrucken(): void" style="text;align=left;verticalAlign=top;spacingLeft=4;spacingRight=4;overflow=hidden;rotatable=0;points=[[0,0.5],[1,0.5]];portConstraint=eastwest;" vertex="1" parent="hhkXRylYwfFcbi-KfXau-0">
          <mxGeometry y="190" width="100" height="26" as="geometry" />
        </mxCell>
        <mxCell id="hhkXRylYwfFcbi-KfXau-9" value="Patient" style="swimlane;fontStyle=0;align=center;verticalAlign=top;childLayout=stackLayout;horizontal=1;startSize=26;horizontalStack=0;resizeParent=1;resizeLast=0;collapsible=1;marginBottom=0;rounded=0;shadow=0;strokeWidth=1;" vertex="1" collapsed="1" parent="nD0CtYyEcKMA2cU-OftC-1">
          <mxGeometry x="428" y="646" width="101" height="26" as="geometry">
            <mxRectangle x="516" y="778" width="196" height="202" as="alternateBounds" />
          </mxGeometry>
        </mxCell>
        <mxCell id="hhkXRylYwfFcbi-KfXau-10" value="- name: String" style="text;align=left;verticalAlign=top;spacingLeft=4;spacingRight=4;overflow=hidden;rotatable=0;points=[[0,0.5],[1,0.5]];portConstraint=eastwest;" vertex="1" parent="hhkXRylYwfFcbi-KfXau-9">
          <mxGeometry y="26" width="101" height="26" as="geometry" />
        </mxCell>
        <mxCell id="hhkXRylYwfFcbi-KfXau-11" value="- pnummer: int" style="text;align=left;verticalAlign=top;spacingLeft=4;spacingRight=4;overflow=hidden;rotatable=0;points=[[0,0.5],[1,0.5]];portConstraint=eastwest;rounded=0;shadow=0;html=0;" vertex="1" parent="hhkXRylYwfFcbi-KfXau-9">
          <mxGeometry y="52" width="101" height="26" as="geometry" />
        </mxCell>
        <mxCell id="hhkXRylYwfFcbi-KfXau-12" value="- geburtsjahr: int" style="text;align=left;verticalAlign=top;spacingLeft=4;spacingRight=4;overflow=hidden;rotatable=0;points=[[0,0.5],[1,0.5]];portConstraint=eastwest;fontStyle=0" vertex="1" parent="hhkXRylYwfFcbi-KfXau-9">
          <mxGeometry y="78" width="101" height="26" as="geometry" />
        </mxCell>
        <mxCell id="hhkXRylYwfFcbi-KfXau-13" value="" style="line;html=1;strokeWidth=1;align=left;verticalAlign=middle;spacingTop=-1;spacingLeft=3;spacingRight=3;rotatable=0;labelPosition=right;points=[];portConstraint=eastwest;" vertex="1" parent="hhkXRylYwfFcbi-KfXau-9">
          <mxGeometry y="104" width="101" height="8" as="geometry" />
        </mxCell>
        <mxCell id="hhkXRylYwfFcbi-KfXau-14" value="+ schluesselGeben(): String" style="text;align=left;verticalAlign=top;spacingLeft=4;spacingRight=4;overflow=hidden;rotatable=0;points=[[0,0.5],[1,0.5]];portConstraint=eastwest;" vertex="1" parent="hhkXRylYwfFcbi-KfXau-9">
          <mxGeometry y="112" width="101" height="26" as="geometry" />
        </mxCell>
        <mxCell id="hhkXRylYwfFcbi-KfXau-15" value="+ infoGeben(): String" style="text;align=left;verticalAlign=top;spacingLeft=4;spacingRight=4;overflow=hidden;rotatable=0;points=[[0,0.5],[1,0.5]];portConstraint=eastwest;" vertex="1" parent="hhkXRylYwfFcbi-KfXau-9">
          <mxGeometry y="138" width="101" height="26" as="geometry" />
        </mxCell>
        <mxCell id="hhkXRylYwfFcbi-KfXau-16" value="+ vergleiche(daten: Patient): int" style="text;align=left;verticalAlign=top;spacingLeft=4;spacingRight=4;overflow=hidden;rotatable=0;points=[[0,0.5],[1,0.5]];portConstraint=eastwest;" vertex="1" parent="hhkXRylYwfFcbi-KfXau-9">
          <mxGeometry y="164" width="101" height="26" as="geometry" />
        </mxCell>
        <mxCell id="hhkXRylYwfFcbi-KfXau-17" style="edgeStyle=orthogonalEdgeStyle;rounded=0;orthogonalLoop=1;jettySize=auto;html=1;exitX=0.5;exitY=1;exitDx=0;exitDy=0;entryX=0.5;entryY=0;entryDx=0;entryDy=0;endArrow=none;endFill=0;" edge="1" parent="nD0CtYyEcKMA2cU-OftC-1" source="hhkXRylYwfFcbi-KfXau-19" target="hhkXRylYwfFcbi-KfXau-9">
          <mxGeometry relative="1" as="geometry">
            <mxPoint x="615" y="854" as="targetPoint" />
          </mxGeometry>
        </mxCell>
        <mxCell id="hhkXRylYwfFcbi-KfXau-18" value="hat als Inhalt &amp;gt;" style="edgeLabel;html=1;align=center;verticalAlign=middle;resizable=0;points=[];rotation=90;" vertex="1" connectable="0" parent="hhkXRylYwfFcbi-KfXau-17">
          <mxGeometry x="-0.0685" y="2" relative="1" as="geometry">
            <mxPoint x="12" y="2" as="offset" />
          </mxGeometry>
        </mxCell>
        <mxCell id="hhkXRylYwfFcbi-KfXau-19" value="Knoten" style="swimlane;fontStyle=0;align=center;verticalAlign=top;childLayout=stackLayout;horizontal=1;startSize=26;horizontalStack=0;resizeParent=1;resizeLast=0;collapsible=1;marginBottom=0;rounded=0;shadow=0;strokeWidth=1;" vertex="1" collapsed="1" parent="nD0CtYyEcKMA2cU-OftC-1">
          <mxGeometry x="428" y="527" width="101" height="26" as="geometry">
            <mxRectangle x="483" y="440" width="262" height="222" as="alternateBounds" />
          </mxGeometry>
        </mxCell>
        <mxCell id="hhkXRylYwfFcbi-KfXau-20" value="- naechster: Knoten" style="text;align=left;verticalAlign=top;spacingLeft=4;spacingRight=4;overflow=hidden;rotatable=0;points=[[0,0.5],[1,0.5]];portConstraint=eastwest;" vertex="1" parent="hhkXRylYwfFcbi-KfXau-19">
          <mxGeometry y="26" width="101" height="26" as="geometry" />
        </mxCell>
        <mxCell id="hhkXRylYwfFcbi-KfXau-21" value="- daten: Patient" style="text;align=left;verticalAlign=top;spacingLeft=4;spacingRight=4;overflow=hidden;rotatable=0;points=[[0,0.5],[1,0.5]];portConstraint=eastwest;rounded=0;shadow=0;html=0;" vertex="1" parent="hhkXRylYwfFcbi-KfXau-19">
          <mxGeometry y="52" width="101" height="26" as="geometry" />
        </mxCell>
        <mxCell id="hhkXRylYwfFcbi-KfXau-22" value="" style="line;html=1;strokeWidth=1;align=left;verticalAlign=middle;spacingTop=-1;spacingLeft=3;spacingRight=3;rotatable=0;labelPosition=right;points=[];portConstraint=eastwest;" vertex="1" parent="hhkXRylYwfFcbi-KfXau-19">
          <mxGeometry y="78" width="101" height="8" as="geometry" />
        </mxCell>
        <mxCell id="hhkXRylYwfFcbi-KfXau-23" value="+ hintenEinfuegen(daten: Patient): void" style="text;align=left;verticalAlign=top;spacingLeft=4;spacingRight=4;overflow=hidden;rotatable=0;points=[[0,0.5],[1,0.5]];portConstraint=eastwest;" vertex="1" parent="hhkXRylYwfFcbi-KfXau-19">
          <mxGeometry y="86" width="101" height="26" as="geometry" />
        </mxCell>
        <mxCell id="hhkXRylYwfFcbi-KfXau-24" value="+ hintenEntfernen(): Knoten" style="text;align=left;verticalAlign=top;spacingLeft=4;spacingRight=4;overflow=hidden;rotatable=0;points=[[0,0.5],[1,0.5]];portConstraint=eastwest;" vertex="1" parent="hhkXRylYwfFcbi-KfXau-19">
          <mxGeometry y="112" width="101" height="26" as="geometry" />
        </mxCell>
        <mxCell id="hhkXRylYwfFcbi-KfXau-25" value="+ listeDrucken(): void" style="text;align=left;verticalAlign=top;spacingLeft=4;spacingRight=4;overflow=hidden;rotatable=0;points=[[0,0.5],[1,0.5]];portConstraint=eastwest;" vertex="1" parent="hhkXRylYwfFcbi-KfXau-19">
          <mxGeometry y="138" width="101" height="26" as="geometry" />
        </mxCell>
        <mxCell id="hhkXRylYwfFcbi-KfXau-26" value="+ anzahlGeben(): int" style="text;align=left;verticalAlign=top;spacingLeft=4;spacingRight=4;overflow=hidden;rotatable=0;points=[[0,0.5],[1,0.5]];portConstraint=eastwest;" vertex="1" parent="hhkXRylYwfFcbi-KfXau-19">
          <mxGeometry y="164" width="101" height="20" as="geometry" />
        </mxCell>
        <mxCell id="hhkXRylYwfFcbi-KfXau-27" style="edgeStyle=orthogonalEdgeStyle;rounded=0;orthogonalLoop=1;jettySize=auto;html=1;exitX=1;exitY=0.5;exitDx=0;exitDy=0;endArrow=none;endFill=0;entryX=0.5;entryY=0;entryDx=0;entryDy=0;" edge="1" parent="hhkXRylYwfFcbi-KfXau-19" source="hhkXRylYwfFcbi-KfXau-23" target="hhkXRylYwfFcbi-KfXau-19">
          <mxGeometry relative="1" as="geometry">
            <mxPoint x="197" y="-101" as="targetPoint" />
            <Array as="points">
              <mxPoint x="281" y="99" />
              <mxPoint x="281" y="-61" />
              <mxPoint x="125" y="-61" />
            </Array>
          </mxGeometry>
        </mxCell>
        <mxCell id="hhkXRylYwfFcbi-KfXau-28" value="&amp;lt; hat als Nachfolger" style="edgeLabel;html=1;align=center;verticalAlign=middle;resizable=0;points=[];" vertex="1" connectable="0" parent="hhkXRylYwfFcbi-KfXau-27">
          <mxGeometry x="0.2745" y="-1" relative="1" as="geometry">
            <mxPoint y="-8" as="offset" />
          </mxGeometry>
        </mxCell>
        <mxCell id="hhkXRylYwfFcbi-KfXau-29" value="hat als Anfang &amp;gt;" style="edgeStyle=orthogonalEdgeStyle;rounded=0;orthogonalLoop=1;jettySize=auto;html=1;exitX=1;exitY=0.5;exitDx=0;exitDy=0;endArrow=none;endFill=0;" edge="1" parent="nD0CtYyEcKMA2cU-OftC-1" source="hhkXRylYwfFcbi-KfXau-5" target="hhkXRylYwfFcbi-KfXau-24">
          <mxGeometry x="-0.0248" y="9" relative="1" as="geometry">
            <mxPoint as="offset" />
          </mxGeometry>
        </mxCell>
        <mxCell id="hhkXRylYwfFcbi-KfXau-30" value="1" style="text;html=1;strokeColor=none;fillColor=none;align=center;verticalAlign=middle;whiteSpace=wrap;rounded=0;" vertex="1" parent="nD0CtYyEcKMA2cU-OftC-1">
          <mxGeometry x="305" y="538" width="17" height="30" as="geometry" />
        </mxCell>
        <mxCell id="hhkXRylYwfFcbi-KfXau-31" value="0..1" style="text;html=1;strokeColor=none;fillColor=none;align=center;verticalAlign=middle;whiteSpace=wrap;rounded=0;" vertex="1" parent="nD0CtYyEcKMA2cU-OftC-1">
          <mxGeometry x="403" y="538" width="20" height="30" as="geometry" />
        </mxCell>
        <mxCell id="hhkXRylYwfFcbi-KfXau-32" value="1" style="text;html=1;strokeColor=none;fillColor=none;align=center;verticalAlign=middle;whiteSpace=wrap;rounded=0;" vertex="1" parent="nD0CtYyEcKMA2cU-OftC-1">
          <mxGeometry x="529" y="534" width="17" height="30" as="geometry" />
        </mxCell>
        <mxCell id="hhkXRylYwfFcbi-KfXau-33" value="0..1" style="text;html=1;strokeColor=none;fillColor=none;align=center;verticalAlign=middle;whiteSpace=wrap;rounded=0;" vertex="1" parent="nD0CtYyEcKMA2cU-OftC-1">
          <mxGeometry x="449" y="501" width="20" height="30" as="geometry" />
        </mxCell>
        <mxCell id="hhkXRylYwfFcbi-KfXau-34" value="1" style="text;html=1;strokeColor=none;fillColor=none;align=center;verticalAlign=middle;whiteSpace=wrap;rounded=0;" vertex="1" parent="nD0CtYyEcKMA2cU-OftC-1">
          <mxGeometry x="463" y="548" width="17" height="30" as="geometry" />
        </mxCell>
        <mxCell id="hhkXRylYwfFcbi-KfXau-35" value="1" style="text;html=1;strokeColor=none;fillColor=none;align=center;verticalAlign=middle;whiteSpace=wrap;rounded=0;" vertex="1" parent="nD0CtYyEcKMA2cU-OftC-1">
          <mxGeometry x="463" y="619" width="17" height="30" as="geometry" />
        </mxCell>
        <mxCell id="hhkXRylYwfFcbi-KfXau-37" value="&amp;lt; hat als Nachfolger" style="edgeStyle=orthogonalEdgeStyle;rounded=0;orthogonalLoop=1;jettySize=auto;html=1;exitX=1;exitY=0.5;exitDx=0;exitDy=0;entryX=0.5;entryY=0;entryDx=0;entryDy=0;endArrow=none;endFill=0;" edge="1" parent="nD0CtYyEcKMA2cU-OftC-1" source="hhkXRylYwfFcbi-KfXau-19" target="hhkXRylYwfFcbi-KfXau-19">
          <mxGeometry x="-0.0948" y="-11" relative="1" as="geometry">
            <Array as="points">
              <mxPoint x="549" y="540" />
              <mxPoint x="549" y="497" />
              <mxPoint x="479" y="497" />
            </Array>
            <mxPoint as="offset" />
          </mxGeometry>
        </mxCell>
      </root>
    </mxGraphModel>
  </diagram>
  <diagram id="bxbXNZFsbyhPeh-XoLGw" name="Objektdiagramme">
    <mxGraphModel dx="946" dy="612" grid="0" gridSize="10" guides="1" tooltips="1" connect="1" arrows="1" fold="1" page="1" pageScale="1" pageWidth="827" pageHeight="1169" math="0" shadow="0">
      <root>
        <mxCell id="cb72Lf78ewh43NR33rxy-0" />
        <mxCell id="cb72Lf78ewh43NR33rxy-1" parent="cb72Lf78ewh43NR33rxy-0" />
        <mxCell id="cb72Lf78ewh43NR33rxy-2" value="&lt;u&gt;liste: Liste&lt;/u&gt;" style="html=1;" vertex="1" parent="cb72Lf78ewh43NR33rxy-1">
          <mxGeometry x="99" y="156" width="100" height="30" as="geometry" />
        </mxCell>
        <mxCell id="cb72Lf78ewh43NR33rxy-3" value="naechster" style="edgeStyle=orthogonalEdgeStyle;rounded=0;orthogonalLoop=1;jettySize=auto;html=1;exitX=1;exitY=0.5;exitDx=0;exitDy=0;" edge="1" parent="cb72Lf78ewh43NR33rxy-1" source="cb72Lf78ewh43NR33rxy-4" target="cb72Lf78ewh43NR33rxy-5">
          <mxGeometry x="-0.0145" y="10" relative="1" as="geometry">
            <mxPoint as="offset" />
          </mxGeometry>
        </mxCell>
        <mxCell id="cb72Lf78ewh43NR33rxy-14" style="edgeStyle=orthogonalEdgeStyle;rounded=0;orthogonalLoop=1;jettySize=auto;html=1;exitX=0.5;exitY=1;exitDx=0;exitDy=0;entryX=0.5;entryY=0;entryDx=0;entryDy=0;endArrow=classic;endFill=1;" edge="1" parent="cb72Lf78ewh43NR33rxy-1" source="cb72Lf78ewh43NR33rxy-4" target="cb72Lf78ewh43NR33rxy-11">
          <mxGeometry relative="1" as="geometry" />
        </mxCell>
        <mxCell id="cb72Lf78ewh43NR33rxy-15" value="daten" style="edgeLabel;html=1;align=center;verticalAlign=middle;resizable=0;points=[];" vertex="1" connectable="0" parent="cb72Lf78ewh43NR33rxy-14">
          <mxGeometry x="-0.1364" y="2" relative="1" as="geometry">
            <mxPoint x="15" y="3" as="offset" />
          </mxGeometry>
        </mxCell>
        <mxCell id="cb72Lf78ewh43NR33rxy-4" value="&lt;u&gt;k1: Knoten&lt;/u&gt;" style="html=1;" vertex="1" parent="cb72Lf78ewh43NR33rxy-1">
          <mxGeometry x="99" y="238" width="100" height="30" as="geometry" />
        </mxCell>
        <mxCell id="cb72Lf78ewh43NR33rxy-5" value="&lt;u&gt;k2: Knoten&lt;/u&gt;" style="html=1;" vertex="1" parent="cb72Lf78ewh43NR33rxy-1">
          <mxGeometry x="268" y="238" width="100" height="30" as="geometry" />
        </mxCell>
        <mxCell id="cb72Lf78ewh43NR33rxy-6" value="naechster" style="edgeStyle=orthogonalEdgeStyle;rounded=0;orthogonalLoop=1;jettySize=auto;html=1;exitX=1;exitY=0.5;exitDx=0;exitDy=0;" edge="1" parent="cb72Lf78ewh43NR33rxy-1" source="cb72Lf78ewh43NR33rxy-7">
          <mxGeometry x="-0.0145" y="10" relative="1" as="geometry">
            <mxPoint x="618" y="253" as="targetPoint" />
            <mxPoint as="offset" />
          </mxGeometry>
        </mxCell>
        <mxCell id="cb72Lf78ewh43NR33rxy-7" value="&lt;u&gt;k3: Knoten&lt;/u&gt;" style="html=1;" vertex="1" parent="cb72Lf78ewh43NR33rxy-1">
          <mxGeometry x="437" y="238" width="100" height="30" as="geometry" />
        </mxCell>
        <mxCell id="cb72Lf78ewh43NR33rxy-8" value="naechster" style="edgeStyle=orthogonalEdgeStyle;rounded=0;orthogonalLoop=1;jettySize=auto;html=1;exitX=1;exitY=0.5;exitDx=0;exitDy=0;" edge="1" parent="cb72Lf78ewh43NR33rxy-1" source="cb72Lf78ewh43NR33rxy-5">
          <mxGeometry x="-0.0145" y="10" relative="1" as="geometry">
            <mxPoint x="438" y="253" as="targetPoint" />
            <mxPoint as="offset" />
            <mxPoint x="547" y="263" as="sourcePoint" />
          </mxGeometry>
        </mxCell>
        <mxCell id="cb72Lf78ewh43NR33rxy-9" value="" style="shape=umlDestroy;whiteSpace=wrap;html=1;strokeWidth=3;" vertex="1" parent="cb72Lf78ewh43NR33rxy-1">
          <mxGeometry x="616" y="238" width="30" height="30" as="geometry" />
        </mxCell>
        <mxCell id="cb72Lf78ewh43NR33rxy-10" value="erster" style="edgeStyle=orthogonalEdgeStyle;rounded=0;orthogonalLoop=1;jettySize=auto;html=1;exitX=0.5;exitY=1;exitDx=0;exitDy=0;entryX=0.5;entryY=0;entryDx=0;entryDy=0;" edge="1" parent="cb72Lf78ewh43NR33rxy-1" source="cb72Lf78ewh43NR33rxy-2" target="cb72Lf78ewh43NR33rxy-4">
          <mxGeometry x="-0.0385" y="21" relative="1" as="geometry">
            <mxPoint x="209" y="263" as="sourcePoint" />
            <mxPoint x="278" y="263" as="targetPoint" />
            <mxPoint as="offset" />
          </mxGeometry>
        </mxCell>
        <mxCell id="cb72Lf78ewh43NR33rxy-11" value="&lt;u&gt;p1: Patient&lt;/u&gt;" style="html=1;" vertex="1" parent="cb72Lf78ewh43NR33rxy-1">
          <mxGeometry x="99" y="312" width="100" height="30" as="geometry" />
        </mxCell>
        <mxCell id="cb72Lf78ewh43NR33rxy-12" value="&lt;u&gt;p2: Patient&lt;/u&gt;" style="html=1;" vertex="1" parent="cb72Lf78ewh43NR33rxy-1">
          <mxGeometry x="268" y="312" width="100" height="30" as="geometry" />
        </mxCell>
        <mxCell id="cb72Lf78ewh43NR33rxy-13" value="&lt;u&gt;p3: Patient&lt;/u&gt;" style="html=1;" vertex="1" parent="cb72Lf78ewh43NR33rxy-1">
          <mxGeometry x="437" y="312" width="100" height="30" as="geometry" />
        </mxCell>
        <mxCell id="cb72Lf78ewh43NR33rxy-16" style="edgeStyle=orthogonalEdgeStyle;rounded=0;orthogonalLoop=1;jettySize=auto;html=1;exitX=0.5;exitY=1;exitDx=0;exitDy=0;entryX=0.5;entryY=0;entryDx=0;entryDy=0;endArrow=classic;endFill=1;" edge="1" parent="cb72Lf78ewh43NR33rxy-1" source="cb72Lf78ewh43NR33rxy-5" target="cb72Lf78ewh43NR33rxy-12">
          <mxGeometry relative="1" as="geometry">
            <mxPoint x="159" y="278" as="sourcePoint" />
            <mxPoint x="159" y="322" as="targetPoint" />
          </mxGeometry>
        </mxCell>
        <mxCell id="cb72Lf78ewh43NR33rxy-17" value="daten" style="edgeLabel;html=1;align=center;verticalAlign=middle;resizable=0;points=[];" vertex="1" connectable="0" parent="cb72Lf78ewh43NR33rxy-16">
          <mxGeometry x="-0.1364" y="2" relative="1" as="geometry">
            <mxPoint x="15" y="3" as="offset" />
          </mxGeometry>
        </mxCell>
        <mxCell id="cb72Lf78ewh43NR33rxy-18" style="edgeStyle=orthogonalEdgeStyle;rounded=0;orthogonalLoop=1;jettySize=auto;html=1;exitX=0.5;exitY=1;exitDx=0;exitDy=0;entryX=0.5;entryY=0;entryDx=0;entryDy=0;endArrow=classic;endFill=1;" edge="1" parent="cb72Lf78ewh43NR33rxy-1" source="cb72Lf78ewh43NR33rxy-7" target="cb72Lf78ewh43NR33rxy-13">
          <mxGeometry relative="1" as="geometry">
            <mxPoint x="328" y="278" as="sourcePoint" />
            <mxPoint x="328" y="322" as="targetPoint" />
          </mxGeometry>
        </mxCell>
        <mxCell id="cb72Lf78ewh43NR33rxy-19" value="daten" style="edgeLabel;html=1;align=center;verticalAlign=middle;resizable=0;points=[];" vertex="1" connectable="0" parent="cb72Lf78ewh43NR33rxy-18">
          <mxGeometry x="-0.1364" y="2" relative="1" as="geometry">
            <mxPoint x="15" y="3" as="offset" />
          </mxGeometry>
        </mxCell>
      </root>
    </mxGraphModel>
  </diagram>
</mxfile>
